<svg width="196" height="196" viewBox="0 0 196 196" fill="none" xmlns="http://www.w3.org/2000/svg">
<rect width="196" height="196" rx="98" fill="#780003"/>
<path d="M121.543 49.5775V139.319C121.543 142.463 121.049 144.53 120.061 145.518C119.163 146.506 117.187 147 114.132 147H94.9982C89.6982 147 86.1947 146.192 84.4879 144.575C82.8709 142.958 81.4336 138.78 80.176 132.043C77.6607 118.748 74.0225 97.2781 69.2614 67.6337C68.9021 65.3879 68.3631 63.9506 67.6445 63.3217C67.0156 62.6929 65.8927 62.3336 64.2758 62.2438H47.7018V49.5775H76.942C79.1878 49.5775 80.9845 49.847 82.332 50.386C83.6794 50.925 84.7574 52.0928 85.5659 53.8894C86.4642 55.5962 87.0481 57.2581 87.3176 58.8751C87.6769 60.4921 88.0363 62.3785 88.3956 64.5345C88.8448 67.1396 89.4736 70.9575 90.2821 75.988C91.8092 86.139 94.1897 100.467 97.4237 118.973C98.6813 126.878 99.5347 131.324 99.9839 132.313C100.523 133.211 101.421 133.75 102.679 133.929V54.9674C102.679 53.3504 103.128 52.0479 104.026 51.0597C104.925 50.0716 106.092 49.5775 107.53 49.5775H121.543ZM47.7018 66.9599H61.7156C63.1529 66.9599 64.3207 67.454 65.219 68.4422C66.1173 69.4303 66.5665 70.7329 66.5665 72.3498V139.319C66.5665 142.374 66.1622 144.44 65.3538 145.518C64.5453 146.506 62.9283 147 60.5028 147H47.7018V66.9599Z" fill="white"/>
<path d="M131.426 49.7973C133.582 49.7973 135.783 50.0668 138.029 50.6058C140.364 51.1448 142.475 52.0431 144.362 53.3007C146.248 54.4685 147.776 56.1304 148.943 58.2864C150.201 60.3525 150.83 62.9127 150.83 65.967V131.589C150.83 134.913 150.291 137.608 149.213 139.674C148.225 141.74 146.877 143.357 145.17 144.525C143.553 145.693 141.622 146.501 139.376 146.95C137.22 147.399 135.019 147.624 132.774 147.624H131.426V49.7973Z" fill="#CABA29"/>
</svg>
