<svg width="500" height="93" viewBox="0 0 500 93" fill="none" xmlns="http://www.w3.org/2000/svg">
<g clip-path="url(#clip0_364_1128)">
<path d="M17.256 68V84H13.8V71.264H6.472V84H3.016V68H17.256ZM24.466 77.472C24.722 78.688 25.298 79.6267 26.194 80.288C27.1113 80.928 28.242 81.248 29.586 81.248C31.3993 81.248 32.7753 80.5867 33.714 79.264L36.562 80.928C35.0047 83.2533 32.6687 84.416 29.554 84.416C26.9727 84.416 24.8713 83.6267 23.25 82.048C21.65 80.448 20.85 78.432 20.85 76C20.85 73.632 21.6393 71.6373 23.218 70.016C24.7753 68.3947 26.802 67.584 29.298 67.584C31.6233 67.584 33.5433 68.4053 35.058 70.048C36.5727 71.6907 37.33 73.6853 37.33 76.032C37.33 76.2027 37.3193 76.416 37.298 76.672C37.2767 76.9067 37.2447 77.1733 37.202 77.472H24.466ZM33.842 74.656C33.6073 73.3547 33.074 72.3733 32.242 71.712C31.41 71.0507 30.418 70.72 29.266 70.72C27.986 70.72 26.9193 71.072 26.066 71.776C25.2127 72.48 24.6687 73.44 24.434 74.656H33.842ZM49.907 67.584C52.083 67.584 53.9603 68.4053 55.539 70.048C57.0963 71.6693 57.875 73.6533 57.875 76C57.875 78.368 57.0963 80.3627 55.539 81.984C53.9817 83.6053 52.1043 84.416 49.907 84.416C47.475 84.416 45.6083 83.52 44.307 81.728V90.4H40.851V68H44.307V70.304C45.6083 68.4907 47.475 67.584 49.907 67.584ZM45.747 79.68C46.707 80.64 47.9123 81.12 49.363 81.12C50.8137 81.12 52.019 80.64 52.979 79.68C53.939 78.6987 54.419 77.472 54.419 76C54.419 74.528 53.939 73.312 52.979 72.352C52.019 71.3707 50.8137 70.88 49.363 70.88C47.9123 70.88 46.707 71.3707 45.747 72.352C44.787 73.312 44.307 74.528 44.307 76C44.307 77.472 44.787 78.6987 45.747 79.68ZM72.5592 75.776C74.1379 76.5227 74.9272 77.7493 74.9272 79.456C74.9272 80.8 74.4686 81.8987 73.5512 82.752C72.6552 83.584 71.3646 84 69.6792 84H61.4872V68H69.0392C70.7032 68 71.9832 68.416 72.8792 69.248C73.7752 70.0587 74.2232 71.1147 74.2232 72.416C74.2232 73.9307 73.6686 75.0507 72.5592 75.776ZM64.7832 70.944V74.496H68.7832C70.1912 74.496 70.8952 73.8987 70.8952 72.704C70.8952 71.5307 70.1912 70.944 68.7832 70.944H64.7832ZM69.3592 80.992C70.8099 80.992 71.5352 80.3627 71.5352 79.104C71.5352 78.5493 71.3432 78.1227 70.9592 77.824C70.5752 77.504 70.0419 77.344 69.3592 77.344H64.7832V80.992H69.3592ZM90.8892 68H94.3452V84H90.8892V81.696C89.5879 83.5093 87.7212 84.416 85.2892 84.416C83.0919 84.416 81.2146 83.6053 79.6572 81.984C78.0999 80.3627 77.3212 78.368 77.3212 76C77.3212 73.632 78.0999 71.6373 79.6572 70.016C81.2146 68.3947 83.0919 67.584 85.2892 67.584C87.6999 67.584 89.5666 68.48 90.8892 70.272V68ZM82.2172 79.68C83.1772 80.64 84.3826 81.12 85.8332 81.12C87.2839 81.12 88.4892 80.64 89.4492 79.68C90.4092 78.6987 90.8892 77.472 90.8892 76C90.8892 74.528 90.4092 73.312 89.4492 72.352C88.4892 71.3707 87.2839 70.88 85.8332 70.88C84.3826 70.88 83.1772 71.3707 82.2172 72.352C81.2572 73.312 80.7772 74.528 80.7772 76C80.7772 77.472 81.2572 78.6987 82.2172 79.68ZM111.238 68V84H107.846V78.624H105.926L101.862 84H97.7975L102.118 78.304C101.008 77.9413 100.112 77.3013 99.4295 76.384C98.7682 75.4667 98.4375 74.4427 98.4375 73.312C98.4375 71.84 98.9602 70.592 100.006 69.568C101.051 68.5227 102.416 68 104.102 68H111.238ZM107.846 75.648V71.136H104.294C103.59 71.136 103.003 71.3387 102.534 71.744C102.064 72.1493 101.83 72.704 101.83 73.408C101.83 74.0907 102.064 74.6347 102.534 75.04C103.003 75.4453 103.59 75.648 104.294 75.648H107.846ZM141.34 84H136.956L128.124 73.344V84H124.444V61.6H128.124V71.648L136.636 61.6H141.02L131.964 72.512L141.34 84ZM155.184 68H158.64V84H155.184V81.696C153.883 83.5093 152.016 84.416 149.584 84.416C147.387 84.416 145.51 83.6053 143.952 81.984C142.395 80.3627 141.616 78.368 141.616 76C141.616 73.632 142.395 71.6373 143.952 70.016C145.51 68.3947 147.387 67.584 149.584 67.584C151.995 67.584 153.862 68.48 155.184 70.272V68ZM146.512 79.68C147.472 80.64 148.678 81.12 150.128 81.12C151.579 81.12 152.784 80.64 153.744 79.68C154.704 78.6987 155.184 77.472 155.184 76C155.184 74.528 154.704 73.312 153.744 72.352C152.784 71.3707 151.579 70.88 150.128 70.88C148.678 70.88 147.472 71.3707 146.512 72.352C145.552 73.312 145.072 74.528 145.072 76C145.072 77.472 145.552 78.6987 146.512 79.68ZM172.141 75.808C173.847 76.576 174.701 77.8453 174.701 79.616C174.701 80.2987 174.551 80.9387 174.253 81.536C173.975 82.112 173.57 82.6133 173.037 83.04C172.503 83.4667 171.842 83.7973 171.053 84.032C170.263 84.288 169.378 84.416 168.397 84.416C165.154 84.416 162.978 83.136 161.869 80.576L164.685 78.912C165.261 80.512 166.509 81.312 168.429 81.312C169.325 81.312 170.029 81.1307 170.541 80.768C171.053 80.384 171.309 79.8827 171.309 79.264C171.309 78.7093 171.106 78.272 170.701 77.952C170.295 77.6107 169.73 77.44 169.005 77.44H166.733V74.4H168.429C169.133 74.4 169.677 74.24 170.061 73.92C170.466 73.5787 170.669 73.12 170.669 72.544C170.669 71.9893 170.445 71.5413 169.997 71.2C169.549 70.8373 168.951 70.656 168.205 70.656C166.583 70.656 165.474 71.36 164.877 72.768L162.061 71.168C163.234 68.7787 165.261 67.584 168.141 67.584C169.933 67.584 171.351 68.0427 172.397 68.96C173.463 69.856 173.997 70.9547 173.997 72.256C173.997 73.856 173.378 75.04 172.141 75.808ZM190.676 68H194.132V84H190.676V81.696C189.374 83.5093 187.508 84.416 185.076 84.416C182.878 84.416 181.001 83.6053 179.444 81.984C177.886 80.3627 177.108 78.368 177.108 76C177.108 73.632 177.886 71.6373 179.444 70.016C181.001 68.3947 182.878 67.584 185.076 67.584C187.486 67.584 189.353 68.48 190.676 70.272V68ZM182.004 79.68C182.964 80.64 184.169 81.12 185.62 81.12C187.07 81.12 188.276 80.64 189.236 79.68C190.196 78.6987 190.676 77.472 190.676 76C190.676 74.528 190.196 73.312 189.236 72.352C188.276 71.3707 187.07 70.88 185.62 70.88C184.169 70.88 182.964 71.3707 182.004 72.352C181.044 73.312 180.564 74.528 180.564 76C180.564 77.472 181.044 78.6987 182.004 79.68ZM212.944 84H208.944L204.976 78.528L200.976 84H196.944L202.96 75.776L197.264 68H201.264L204.944 73.056L208.624 68H212.656L206.96 75.808L212.944 84ZM222.14 84.416C219.73 84.416 217.714 83.6053 216.092 81.984C214.492 80.3627 213.692 78.368 213.692 76C213.692 73.6107 214.492 71.616 216.092 70.016C217.714 68.3947 219.73 67.584 222.14 67.584C223.698 67.584 225.116 67.9573 226.396 68.704C227.676 69.4293 228.636 70.432 229.276 71.712L226.3 73.44C225.938 72.672 225.383 72.0747 224.636 71.648C223.911 71.2 223.068 70.976 222.108 70.976C220.7 70.976 219.516 71.456 218.556 72.416C217.618 73.3973 217.148 74.592 217.148 76C217.148 77.408 217.618 78.6027 218.556 79.584C219.516 80.544 220.7 81.024 222.108 81.024C223.068 81.024 223.922 80.8 224.668 80.352C225.415 79.904 225.98 79.3067 226.364 78.56L229.34 80.256C228.658 81.536 227.676 82.5493 226.396 83.296C225.116 84.0427 223.698 84.416 222.14 84.416ZM244.386 68V71.328H239.17V84H235.714V71.328H230.466V68H244.386ZM259.252 68H262.708V84H259.252V81.696C257.95 83.5093 256.084 84.416 253.652 84.416C251.454 84.416 249.577 83.6053 248.02 81.984C246.462 80.3627 245.684 78.368 245.684 76C245.684 73.632 246.462 71.6373 248.02 70.016C249.577 68.3947 251.454 67.584 253.652 67.584C256.062 67.584 257.929 68.48 259.252 70.272V68ZM250.58 79.68C251.54 80.64 252.745 81.12 254.196 81.12C255.646 81.12 256.852 80.64 257.812 79.68C258.772 78.6987 259.252 77.472 259.252 76C259.252 74.528 258.772 73.312 257.812 72.352C256.852 71.3707 255.646 70.88 254.196 70.88C252.745 70.88 251.54 71.3707 250.58 72.352C249.62 73.312 249.14 74.528 249.14 76C249.14 77.472 249.62 78.6987 250.58 79.68ZM278 68H281.456V84H278V77.632H270.672V84H267.216V68H270.672V74.368H278V68ZM293.498 84.416C291.087 84.416 289.071 83.6053 287.45 81.984C285.85 80.3627 285.05 78.368 285.05 76C285.05 73.6107 285.85 71.616 287.45 70.016C289.071 68.3947 291.087 67.584 293.498 67.584C295.055 67.584 296.474 67.9573 297.754 68.704C299.034 69.4293 299.994 70.432 300.634 71.712L297.658 73.44C297.295 72.672 296.741 72.0747 295.994 71.648C295.269 71.2 294.426 70.976 293.466 70.976C292.058 70.976 290.874 71.456 289.914 72.416C288.975 73.3973 288.506 74.592 288.506 76C288.506 77.408 288.975 78.6027 289.914 79.584C290.874 80.544 292.058 81.024 293.466 81.024C294.426 81.024 295.279 80.8 296.026 80.352C296.773 79.904 297.338 79.3067 297.722 78.56L300.698 80.256C300.015 81.536 299.034 82.5493 297.754 83.296C296.474 84.0427 295.055 84.416 293.498 84.416ZM317.914 84H313.786L307.226 76.608V84H303.77V68H307.226V75.072L313.434 68H317.658L310.618 75.84L317.914 84ZM332.109 68H335.565V84H332.109V81.696C330.808 83.5093 328.941 84.416 326.509 84.416C324.312 84.416 322.435 83.6053 320.877 81.984C319.32 80.3627 318.541 78.368 318.541 76C318.541 73.632 319.32 71.6373 320.877 70.016C322.435 68.3947 324.312 67.584 326.509 67.584C328.92 67.584 330.787 68.48 332.109 70.272V68ZM323.437 79.68C324.397 80.64 325.603 81.12 327.053 81.12C328.504 81.12 329.709 80.64 330.669 79.68C331.629 78.6987 332.109 77.472 332.109 76C332.109 74.528 331.629 73.312 330.669 72.352C329.709 71.3707 328.504 70.88 327.053 70.88C325.603 70.88 324.397 71.3707 323.437 72.352C322.477 73.312 321.997 74.528 321.997 76C321.997 77.472 322.477 78.6987 323.437 79.68ZM352.457 68V84H349.065V78.624H347.145L343.081 84H339.017L343.337 78.304C342.228 77.9413 341.332 77.3013 340.649 76.384C339.988 75.4667 339.657 74.4427 339.657 73.312C339.657 71.84 340.18 70.592 341.225 69.568C342.271 68.5227 343.636 68 345.321 68H352.457ZM349.065 75.648V71.136H345.513C344.809 71.136 344.223 71.3387 343.753 71.744C343.284 72.1493 343.049 72.704 343.049 73.408C343.049 74.0907 343.284 74.6347 343.753 75.04C344.223 75.4453 344.809 75.648 345.513 75.648H349.065ZM379.584 84H375.456L368.896 76.608V84H365.44V68H368.896V75.072L375.104 68H379.328L372.288 75.84L379.584 84ZM388.659 84.416C386.291 84.416 384.297 83.6053 382.675 81.984C381.033 80.3413 380.211 78.3467 380.211 76C380.211 73.6533 381.033 71.6587 382.675 70.016C384.297 68.3947 386.291 67.584 388.659 67.584C391.027 67.584 393.022 68.3947 394.643 70.016C396.286 71.6587 397.107 73.6533 397.107 76C397.107 78.3467 396.286 80.3413 394.643 81.984C393.022 83.6053 391.027 84.416 388.659 84.416ZM385.107 79.616C386.067 80.576 387.251 81.056 388.659 81.056C390.067 81.056 391.251 80.576 392.211 79.616C393.171 78.656 393.651 77.4507 393.651 76C393.651 74.5493 393.171 73.344 392.211 72.384C391.251 71.424 390.067 70.944 388.659 70.944C387.251 70.944 386.067 71.424 385.107 72.384C384.147 73.344 383.667 74.5493 383.667 76C383.667 77.4507 384.147 78.656 385.107 79.616ZM417.032 68V84H413.672V73.472L409.064 80.8H408.648L404.072 73.504V84H400.712V68H404.232L408.872 75.392L413.512 68H417.032ZM434.177 68H437.633V84H434.177V81.696C432.875 83.5093 431.009 84.416 428.577 84.416C426.379 84.416 424.502 83.6053 422.945 81.984C421.387 80.3627 420.609 78.368 420.609 76C420.609 73.632 421.387 71.6373 422.945 70.016C424.502 68.3947 426.379 67.584 428.577 67.584C430.987 67.584 432.854 68.48 434.177 70.272V68ZM425.505 79.68C426.465 80.64 427.67 81.12 429.121 81.12C430.571 81.12 431.777 80.64 432.737 79.68C433.697 78.6987 434.177 77.472 434.177 76C434.177 74.528 433.697 73.312 432.737 72.352C431.777 71.3707 430.571 70.88 429.121 70.88C427.67 70.88 426.465 71.3707 425.505 72.352C424.545 73.312 424.065 74.528 424.065 76C424.065 77.472 424.545 78.6987 425.505 79.68ZM452.925 68H456.381V84H452.925V77.632H445.597V84H442.141V68H445.597V74.368H452.925V68ZM474.951 80.736H477.095V88.288H473.703V84H462.727V88.288H459.335V80.736H461.287C462.268 79.3707 462.759 77.44 462.759 74.944V68H474.951V80.736ZM471.559 80.736V71.168H466.151V74.944C466.151 77.248 465.799 79.1787 465.095 80.736H471.559ZM492.429 68H495.885V84H492.429V81.696C491.128 83.5093 489.261 84.416 486.829 84.416C484.632 84.416 482.755 83.6053 481.197 81.984C479.64 80.3627 478.861 78.368 478.861 76C478.861 73.632 479.64 71.6373 481.197 70.016C482.755 68.3947 484.632 67.584 486.829 67.584C489.24 67.584 491.107 68.48 492.429 70.272V68ZM483.757 79.68C484.717 80.64 485.923 81.12 487.373 81.12C488.824 81.12 490.029 80.64 490.989 79.68C491.949 78.6987 492.429 77.472 492.429 76C492.429 74.528 491.949 73.312 490.989 72.352C490.029 71.3707 488.824 70.88 487.373 70.88C485.923 70.88 484.717 71.3707 483.757 72.352C482.797 73.312 482.317 74.528 482.317 76C482.317 77.472 482.797 78.6987 483.757 79.68Z" fill="white"/>
<path d="M29.4387 8.4V35H25.0687V16.038L16.9747 29.414H16.4427L8.34867 16V35H3.97867V8.4H8.69067L16.7087 21.7L24.7647 8.4H29.4387ZM43.3303 22.46C45.3823 22.46 47.0417 23.0427 48.3083 24.208C49.6003 25.348 50.2463 26.8553 50.2463 28.73C50.2463 30.5793 49.6003 32.0867 48.3083 33.252C47.0417 34.4173 45.3823 35 43.3303 35H35.0463V16H39.1503V22.46H43.3303ZM52.5263 16H56.6303V35H52.5263V16ZM43.3683 31.314C44.179 31.314 44.8503 31.0733 45.3823 30.592C45.9397 30.1107 46.2183 29.49 46.2183 28.73C46.2183 27.9447 45.9397 27.324 45.3823 26.868C44.8503 26.3867 44.179 26.146 43.3683 26.146H39.1503V31.314H43.3683Z" fill="white"/>
<path d="M94.5803 8.4V7.9H94.0803V8.4H94.5803ZM98.9503 8.4H99.4503V7.9H98.9503V8.4ZM98.9503 35V35.5H99.4503V35H98.9503ZM95.5303 35L95.1197 35.2853L95.2689 35.5H95.5303V35ZM82.9903 16.95L83.401 16.6647L82.4903 15.354V16.95H82.9903ZM82.9903 35V35.5H83.4903V35H82.9903ZM78.6203 35H78.1203V35.5H78.6203V35ZM78.6203 8.4V7.9H78.1203V8.4H78.6203ZM82.0403 8.4L82.451 8.11472L82.3018 7.9H82.0403V8.4ZM94.5803 26.45L94.1697 26.7353L95.0803 28.046V26.45H94.5803ZM94.5803 8.9H98.9503V7.9H94.5803V8.9ZM98.4503 8.4V35H99.4503V8.4H98.4503ZM98.9503 34.5H95.5303V35.5H98.9503V34.5ZM95.941 34.7147L83.401 16.6647L82.5797 17.2353L95.1197 35.2853L95.941 34.7147ZM82.4903 16.95V35H83.4903V16.95H82.4903ZM82.9903 34.5H78.6203V35.5H82.9903V34.5ZM79.1203 35V8.4H78.1203V35H79.1203ZM78.6203 8.9H82.0403V7.9H78.6203V8.9ZM81.6297 8.68528L94.1697 26.7353L94.991 26.1647L82.451 8.11472L81.6297 8.68528ZM95.0803 26.45V8.4H94.0803V26.45H95.0803ZM119.083 16V15.5H118.583V16H119.083ZM123.187 16H123.687V15.5H123.187V16ZM123.187 35V35.5H123.687V35H123.187ZM119.083 35H118.583V35.5H119.083V35ZM119.083 32.568H119.583V30.8799L118.664 32.2957L119.083 32.568ZM107.873 33.442L107.51 33.7856L107.516 33.7922L107.873 33.442ZM105.897 16V15.5H105.397V16H105.897ZM110.001 16H110.501V15.5H110.001V16ZM111.141 30.554L110.787 30.9076L110.793 30.9135L111.141 30.554ZM117.753 30.326L118.106 30.6796L118.111 30.6745L117.753 30.326ZM119.083 16.5H123.187V15.5H119.083V16.5ZM122.687 16V35H123.687V16H122.687ZM123.187 34.5H119.083V35.5H123.187V34.5ZM119.583 35V32.568H118.583V35H119.583ZM118.664 32.2957C117.504 34.082 115.712 34.994 113.193 34.994V35.994C115.994 35.994 118.129 34.9553 119.502 32.8403L118.664 32.2957ZM113.193 34.994C111.101 34.994 109.464 34.3494 108.23 33.0918L107.516 33.7922C108.967 35.2706 110.877 35.994 113.193 35.994V34.994ZM108.236 33.0985C107.029 31.822 106.397 30.0329 106.397 27.666H105.397C105.397 30.2137 106.082 32.2753 107.51 33.7855L108.236 33.0985ZM106.397 27.666V16H105.397V27.666H106.397ZM105.897 16.5H110.001V15.5H105.897V16.5ZM109.501 16V27.248H110.501V16H109.501ZM109.501 27.248C109.501 28.7777 109.905 30.0251 110.787 30.9076L111.494 30.2004C110.857 29.5629 110.501 28.6063 110.501 27.248H109.501ZM110.793 30.9135C111.668 31.7592 112.843 32.156 114.257 32.156V31.156C113.036 31.156 112.134 30.8181 111.488 30.1945L110.793 30.9135ZM114.257 32.156C115.812 32.156 117.112 31.6743 118.106 30.6796L117.399 29.9724C116.621 30.751 115.59 31.156 114.257 31.156V32.156ZM118.111 30.6745C119.123 29.6341 119.583 28.1046 119.583 26.184H118.583C118.583 27.962 118.156 29.1939 117.394 29.9775L118.111 30.6745ZM119.583 26.184V16H118.583V26.184H119.583ZM153.94 16.076L153.743 16.5357L153.754 16.5402L153.94 16.076ZM156.22 17.596L156.58 17.2494L156.58 17.2494L156.22 17.596ZM157.664 20.028L157.191 20.1899L157.195 20.2009L157.664 20.028ZM158.196 35V35.5H158.696V35H158.196ZM154.092 35H153.592V35.5H154.092V35ZM153.104 20.446L152.732 20.7798L152.737 20.7862L153.104 20.446ZM147.366 20.598L146.99 20.2679L146.99 20.2679L147.366 20.598ZM146.264 35V35.5H146.764V35H146.264ZM142.16 35H141.66V35.5H142.16V35ZM141.21 20.446L140.825 20.7648L140.831 20.772L140.837 20.779L141.21 20.446ZM135.548 20.598L135.912 20.9403L135.912 20.9403L135.548 20.598ZM134.37 35V35.5H134.87V35H134.37ZM130.266 35H129.766V35.5H130.266V35ZM130.266 16V15.5H129.766V16H130.266ZM134.37 16H134.87V15.5H134.37V16ZM134.37 18.28H133.87V19.9505L134.788 18.5547L134.37 18.28ZM145.2 18.508L144.768 18.7596L145.186 19.4784L145.625 18.7715L145.2 18.508ZM151.014 16.006C152.017 16.006 152.925 16.1849 153.743 16.5356L154.137 15.6164C153.182 15.2071 152.139 15.006 151.014 15.006V16.006ZM153.754 16.5402C154.578 16.8697 155.278 17.3374 155.859 17.9426L156.58 17.2494C155.896 16.5373 155.075 15.9916 154.126 15.6118L153.754 16.5402ZM155.859 17.9426C156.437 18.5429 156.882 19.2883 157.191 20.1898L158.137 19.8662C157.787 18.8423 157.27 17.9664 156.58 17.2494L155.859 17.9426ZM157.195 20.2009C157.526 21.1012 157.696 22.1057 157.696 23.22H158.696C158.696 22.0036 158.511 20.8801 158.133 19.8551L157.195 20.2009ZM157.696 23.22V35H158.696V23.22H157.696ZM158.196 34.5H154.092V35.5H158.196V34.5ZM154.592 35V23.486H153.592V35H154.592ZM154.592 23.486C154.592 22.0887 154.242 20.9366 153.47 20.1058L152.737 20.7862C153.283 21.374 153.592 22.2487 153.592 23.486H154.592ZM153.476 20.1122C152.708 19.2549 151.664 18.844 150.406 18.844V19.844C151.428 19.844 152.183 20.1677 152.732 20.7798L153.476 20.1122ZM150.406 18.844C148.996 18.844 147.836 19.3061 146.99 20.2679L147.741 20.9281C148.366 20.2179 149.232 19.844 150.406 19.844V18.844ZM146.99 20.2679C146.144 21.2315 145.764 22.6257 145.764 24.36H146.764C146.764 22.7503 147.119 21.6365 147.741 20.9281L146.99 20.2679ZM145.764 24.36V35H146.764V24.36H145.764ZM146.264 34.5H142.16V35.5H146.264V34.5ZM142.66 35V23.486H141.66V35H142.66ZM142.66 23.486C142.66 22.0933 142.325 20.944 141.583 20.113L140.837 20.779C141.362 21.3666 141.66 22.2441 141.66 23.486H142.66ZM141.595 20.1272C140.873 19.2551 139.845 18.844 138.588 18.844V19.844C139.611 19.844 140.33 20.1676 140.825 20.7648L141.595 20.1272ZM138.588 18.844C137.221 18.844 136.072 19.3102 135.183 20.2557L135.912 20.9403C136.595 20.2138 137.472 19.844 138.588 19.844V18.844ZM135.183 20.2557C134.278 21.2192 133.87 22.6184 133.87 24.36H134.87C134.87 22.7576 135.247 21.6488 135.912 20.9403L135.183 20.2557ZM133.87 24.36V35H134.87V24.36H133.87ZM134.37 34.5H130.266V35.5H134.37V34.5ZM130.766 35V16H129.766V35H130.766ZM130.266 16.5H134.37V15.5H130.266V16.5ZM133.87 16V18.28H134.87V16H133.87ZM134.788 18.5547C135.902 16.86 137.548 16.006 139.804 16.006V15.006C137.246 15.006 135.27 16.0014 133.952 18.0053L134.788 18.5547ZM139.804 16.006C142.069 16.006 143.697 16.9213 144.768 18.7596L145.632 18.2564C144.372 16.092 142.403 15.006 139.804 15.006V16.006ZM145.625 18.7715C146.763 16.9369 148.528 16.006 151.014 16.006V15.006C148.231 15.006 146.12 16.0765 144.775 18.2445L145.625 18.7715ZM182.31 18.394L181.95 18.7404L181.95 18.7404L182.31 18.394ZM182.31 32.606L181.95 32.2596L181.95 32.2596L182.31 32.606ZM168.972 32.264L169.378 31.9725L168.472 30.7097V32.264H168.972ZM168.972 35V35.5H169.472V35H168.972ZM164.868 35H164.368V35.5H164.868V35ZM164.868 8.4V7.9H164.368V8.4H164.868ZM168.972 8.4H169.472V7.9H168.972V8.4ZM168.972 18.698H168.472V20.2374L169.377 18.9918L168.972 18.698ZM170.682 29.87L170.325 30.2197L170.329 30.2236L170.682 29.87ZM179.27 29.87L179.624 30.2236L179.628 30.2196L179.27 29.87ZM179.27 21.168L178.913 21.5177L178.917 21.5216L179.27 21.168ZM170.682 21.168L171.036 21.5216L171.04 21.5176L170.682 21.168ZM175.622 16.006C178.092 16.006 180.192 16.9106 181.95 18.7404L182.671 18.0476C180.73 16.0267 178.371 15.006 175.622 15.006V16.006ZM181.95 18.7404C183.704 20.5672 184.584 22.8095 184.584 25.5H185.584C185.584 22.5665 184.615 20.0714 182.671 18.0476L181.95 18.7404ZM184.584 25.5C184.584 28.1905 183.704 30.4328 181.95 32.2596L182.671 32.9524C184.615 30.9286 185.584 28.4335 185.584 25.5H184.584ZM181.95 32.2596C180.192 34.0894 178.092 34.994 175.622 34.994V35.994C178.371 35.994 180.73 34.9733 182.671 32.9524L181.95 32.2596ZM175.622 34.994C172.878 34.994 170.82 33.9818 169.378 31.9725L168.566 32.5555C170.215 34.8528 172.59 35.994 175.622 35.994V34.994ZM168.472 32.264V35H169.472V32.264H168.472ZM168.972 34.5H164.868V35.5H168.972V34.5ZM165.368 35V8.4H164.368V35H165.368ZM164.868 8.9H168.972V7.9H164.868V8.9ZM168.472 8.4V18.698H169.472V8.4H168.472ZM169.377 18.9918C170.818 17.0074 172.876 16.006 175.622 16.006V15.006C172.592 15.006 170.217 16.1326 168.568 18.4042L169.377 18.9918ZM170.329 30.2236C171.569 31.4642 173.131 32.08 174.976 32.08V31.08C173.376 31.08 172.075 30.5558 171.036 29.5164L170.329 30.2236ZM174.976 32.08C176.821 32.08 178.383 31.4642 179.624 30.2236L178.917 29.5164C177.877 30.5558 176.576 31.08 174.976 31.08V32.08ZM179.628 30.2196C180.866 28.9537 181.48 27.3683 181.48 25.5H180.48C180.48 27.1277 179.954 28.4556 178.913 29.5204L179.628 30.2196ZM181.48 25.5C181.48 23.6317 180.866 22.0566 179.624 20.8144L178.917 21.5216C179.954 22.5594 180.48 23.8723 180.48 25.5H181.48ZM179.628 20.8184C178.388 19.551 176.825 18.92 174.976 18.92V19.92C176.573 19.92 177.873 20.4544 178.913 21.5176L179.628 20.8184ZM174.976 18.92C173.127 18.92 171.565 19.551 170.325 20.8184L171.04 21.5176C172.08 20.4544 173.379 19.92 174.976 19.92V18.92ZM170.329 20.8144C169.086 22.0566 168.472 23.6317 168.472 25.5H169.472C169.472 23.8723 169.998 22.5594 171.036 21.5216L170.329 20.8144ZM168.472 25.5C168.472 27.3683 169.086 28.9537 170.325 30.2196L171.04 29.5204C169.998 28.4556 169.472 27.1277 169.472 25.5H168.472ZM194.314 27.248V26.748H193.697L193.824 27.351L194.314 27.248ZM196.366 30.592L196.069 30.9944L196.08 31.0021L196.366 30.592ZM205.296 29.376L205.548 28.9443L205.153 28.7134L204.888 29.0866L205.296 29.376ZM208.678 31.352L209.093 31.6302L209.389 31.1885L208.93 30.9203L208.678 31.352ZM192.87 32.682L192.516 33.0356L192.521 33.0402L192.87 32.682ZM192.832 18.394L193.19 18.7428L193.192 18.7404L192.832 18.394ZM206.892 18.432L207.259 18.0931L207.259 18.0931L206.892 18.432ZM209.552 26.298L210.05 26.3433L210.05 26.3395L209.552 26.298ZM209.438 27.248V27.748H209.871L209.933 27.3187L209.438 27.248ZM205.448 23.904V24.404H206.046L205.94 23.8153L205.448 23.904ZM203.548 20.408L203.237 20.7994L203.237 20.7994L203.548 20.408ZM196.214 20.484L195.896 20.0983L195.896 20.0983L196.214 20.484ZM194.276 23.904L193.785 23.8093L193.67 24.404H194.276V23.904ZM193.824 27.351C194.151 28.9 194.895 30.1276 196.069 30.9943L196.663 30.1897C195.709 29.4858 195.085 28.484 194.803 27.145L193.824 27.351ZM196.08 31.0021C197.269 31.8316 198.716 32.232 200.394 32.232V31.232C198.879 31.232 197.641 30.8724 196.652 30.1819L196.08 31.0021ZM200.394 32.232C202.687 32.232 204.483 31.3853 205.703 29.6654L204.888 29.0866C203.879 30.5081 202.407 31.232 200.394 31.232V32.232ZM205.043 29.8077L208.425 31.7837L208.93 30.9203L205.548 28.9443L205.043 29.8077ZM208.262 31.0738C206.517 33.6791 203.91 34.994 200.356 34.994V35.994C204.199 35.994 207.139 34.5476 209.093 31.6302L208.262 31.0738ZM200.356 34.994C197.401 34.994 195.037 34.0946 193.219 32.3238L192.521 33.0402C194.553 35.0188 197.18 35.994 200.356 35.994V34.994ZM193.223 32.3284C191.425 30.5297 190.52 28.2664 190.52 25.5H189.52C189.52 28.5096 190.515 31.0343 192.516 33.0356L193.223 32.3284ZM190.52 25.5C190.52 22.8116 191.411 20.5701 193.19 18.7428L192.473 18.0452C190.503 20.0686 189.52 22.5644 189.52 25.5H190.52ZM193.192 18.7404C194.936 16.9245 197.207 16.006 200.052 16.006V15.006C196.968 15.006 194.426 16.0128 192.471 18.0476L193.192 18.7404ZM200.052 16.006C202.68 16.006 204.824 16.9276 206.524 18.7709L207.259 18.0931C205.362 16.0351 202.946 15.006 200.052 15.006V16.006ZM206.524 18.7709C208.233 20.6243 209.09 22.87 209.09 25.538H210.09C210.09 22.6327 209.148 20.141 207.259 18.0931L206.524 18.7709ZM209.09 25.538C209.09 25.7218 209.078 25.9601 209.053 26.2565L210.05 26.3395C210.076 26.0279 210.09 25.7596 210.09 25.538H209.09ZM209.054 26.2527C209.029 26.5209 208.993 26.8289 208.943 27.1773L209.933 27.3187C209.984 26.9578 210.023 26.6324 210.05 26.3433L209.054 26.2527ZM209.438 26.748H194.314V27.748H209.438V26.748ZM205.94 23.8153C205.645 22.1807 204.964 20.8947 203.859 20.0166L203.237 20.7994C204.108 21.492 204.693 22.5366 204.956 23.9927L205.94 23.8153ZM203.859 20.0166C202.775 19.1549 201.485 18.73 200.014 18.73V19.73C201.279 19.73 202.345 20.0904 203.237 20.7994L203.859 20.0166ZM200.014 18.73C198.397 18.73 197.012 19.1771 195.896 20.0983L196.532 20.8697C197.442 20.1189 198.591 19.73 200.014 19.73V18.73ZM195.896 20.0983C194.782 21.0172 194.083 22.2656 193.785 23.8093L194.767 23.9987C195.026 22.6544 195.619 21.6228 196.532 20.8697L195.896 20.0983ZM194.276 24.404H205.448V23.404H194.276V24.404ZM219.585 19.192H219.085L220.044 19.3896L219.585 19.192ZM225.437 15.658H225.937V15.158H225.437V15.658ZM225.437 20.104L225.405 20.603L225.937 20.6373V20.104H225.437ZM221.333 21.244L221.624 21.6503L221.63 21.6461L221.333 21.244ZM219.585 35V35.5H220.085V35H219.585ZM215.481 35H214.981V35.5H215.481V35ZM215.481 16V15.5H214.981V16H215.481ZM219.585 16H220.085V15.5H219.585V16ZM220.044 19.3896C220.515 18.2949 221.191 17.4979 222.066 16.9695C222.945 16.4387 224.06 16.158 225.437 16.158V15.158C223.926 15.158 222.621 15.4663 221.549 16.1135C220.474 16.7631 219.668 17.7331 219.126 18.9944L220.044 19.3896ZM224.937 15.658V20.104H225.937V15.658H224.937ZM225.469 19.605C223.792 19.4968 222.304 19.9042 221.036 20.8419L221.63 21.6461C222.692 20.8611 223.941 20.5085 225.405 20.603L225.469 19.605ZM221.041 20.8377C219.701 21.7992 219.085 23.3752 219.085 25.424H220.085C220.085 23.5715 220.634 22.3608 221.624 21.6503L221.041 20.8377ZM219.085 25.424V35H220.085V25.424H219.085ZM219.585 34.5H215.481V35.5H219.585V34.5ZM215.981 35V16H214.981V35H215.981ZM215.481 16.5H219.585V15.5H215.481V16.5ZM219.085 16V19.192H220.085V16H219.085ZM235.841 8.4V7.9H235.755L235.675 7.92855L235.841 8.4ZM239.641 8.4H240.141V7.9H239.641V8.4ZM239.641 35V35.5H240.141V35H239.641ZM235.271 35H234.771V35.5H235.271V35ZM235.271 13.074H235.771V12.4124L235.135 12.593L235.271 13.074ZM229.913 14.594L229.432 14.7314L229.57 15.2112L230.05 15.075L229.913 14.594ZM228.849 10.87L228.683 10.3986L228.239 10.5552L228.368 11.0074L228.849 10.87ZM235.841 8.9H239.641V7.9H235.841V8.9ZM239.141 8.4V35H240.141V8.4H239.141ZM239.641 34.5H235.271V35.5H239.641V34.5ZM235.771 35V13.074H234.771V35H235.771ZM235.135 12.593L229.777 14.113L230.05 15.075L235.408 13.555L235.135 12.593ZM230.394 14.4566L229.33 10.7326L228.368 11.0074L229.432 14.7314L230.394 14.4566ZM229.016 11.3414L236.008 8.87145L235.675 7.92855L228.683 10.3986L229.016 11.3414ZM285.092 21.244H285.592V20.744H285.092V21.244ZM281.482 32.036L281.83 32.3952L281.83 32.3952L281.482 32.036ZM261.874 31.504L261.52 31.8576L261.522 31.8592L261.874 31.504ZM261.874 11.934L261.52 11.5804L261.52 11.5804L261.874 11.934ZM275.402 8.362L275.273 8.84528L275.286 8.84829L275.402 8.362ZM281.33 11.63L280.982 11.9892L280.988 11.9948L281.33 11.63ZM283.42 14.214L283.669 14.6473L284.112 14.3923L283.848 13.9551L283.42 14.214ZM279.658 16.38L279.22 16.6206L279.465 17.0679L279.907 16.8133L279.658 16.38ZM276.504 13.302L276.261 13.7391L276.264 13.7409L276.504 13.302ZM264.952 14.898L265.31 15.2466L265.31 15.2465L264.952 14.898ZM264.952 28.54L264.598 28.8936L264.603 28.8984L264.952 28.54ZM277.872 29.604L278.17 30.0057L278.174 30.0023L277.872 29.604ZM280.684 25.158L281.172 25.265L281.305 24.658H280.684V25.158ZM271.792 25.158H271.292V25.658H271.792V25.158ZM271.792 21.244V20.744H271.292V21.244H271.792ZM284.592 21.244V23.068H285.592V21.244H284.592ZM284.592 23.068C284.592 26.5939 283.434 29.4492 281.134 31.6768L281.83 32.3952C284.343 29.9614 285.592 26.8381 285.592 23.068H284.592ZM281.134 31.6768C278.862 33.876 275.854 34.994 272.058 34.994V35.994C276.064 35.994 279.339 34.8066 281.83 32.3952L281.134 31.6768ZM272.058 34.994C268.073 34.994 264.809 33.7076 262.226 31.1488L261.522 31.8592C264.309 34.6204 267.835 35.994 272.058 35.994V34.994ZM262.227 31.1504C259.664 28.5874 258.384 25.4479 258.384 21.7H257.384C257.384 25.7041 258.763 29.1006 261.52 31.8576L262.227 31.1504ZM258.384 21.7C258.384 17.9784 259.664 14.8513 262.227 12.2876L261.52 11.5804C258.764 14.3367 257.384 17.7202 257.384 21.7H258.384ZM262.227 12.2876C264.815 9.70015 268.004 8.406 271.83 8.406V7.406C267.751 7.406 264.304 8.79718 261.52 11.5804L262.227 12.2876ZM271.83 8.406C273.03 8.406 274.177 8.55289 275.273 8.84512L275.531 7.87888C274.347 7.5631 273.112 7.406 271.83 7.406V8.406ZM275.286 8.84829C276.408 9.11674 277.441 9.51828 278.386 10.0515L278.878 9.18051C277.847 8.59905 276.726 8.16459 275.518 7.87571L275.286 8.84829ZM278.386 10.0515C279.337 10.5879 280.202 11.2337 280.982 11.9891L281.678 11.2709C280.836 10.4557 279.903 9.75872 278.878 9.18051L278.386 10.0515ZM280.988 11.9948C281.765 12.7232 282.433 13.5488 282.992 14.4729L283.848 13.9551C283.242 12.9539 282.516 12.0568 281.672 11.2652L280.988 11.9948ZM283.17 13.7807L279.408 15.9467L279.907 16.8133L283.669 14.6473L283.17 13.7807ZM280.096 16.1394C279.337 14.7572 278.214 13.6651 276.743 12.8631L276.264 13.7409C277.581 14.4589 278.56 15.4188 279.22 16.6206L280.096 16.1394ZM276.747 12.8649C275.296 12.059 273.653 11.662 271.83 11.662V12.662C273.503 12.662 274.976 13.025 276.261 13.7391L276.747 12.8649ZM271.83 11.662C268.898 11.662 266.471 12.6179 264.593 14.5495L265.31 15.2465C266.979 13.5301 269.137 12.662 271.83 12.662V11.662ZM264.593 14.5494C262.699 16.4972 261.754 18.9044 261.754 21.738H262.754C262.754 19.1502 263.607 16.9975 265.31 15.2466L264.593 14.5494ZM261.754 21.738C261.754 24.5955 262.698 26.9936 264.598 28.8936L265.305 28.1864C263.608 26.4891 262.754 24.3525 262.754 21.738H261.754ZM264.603 28.8984C266.558 30.7999 269.071 31.738 272.096 31.738V30.738C269.294 30.738 267.044 29.8775 265.3 28.1816L264.603 28.8984ZM272.096 31.738C274.552 31.738 276.591 31.1758 278.17 30.0057L277.574 29.2023C276.214 30.2109 274.402 30.738 272.096 30.738V31.738ZM278.174 30.0023C279.741 28.8138 280.742 27.2272 281.172 25.265L280.195 25.051C279.815 26.7875 278.942 28.1649 277.57 29.2057L278.174 30.0023ZM280.684 24.658H271.792V25.658H280.684V24.658ZM272.292 25.158V21.244H271.292V25.158H272.292ZM271.792 21.744H285.092V20.744H271.792V21.744ZM295.205 19.192H294.705L295.664 19.3896L295.205 19.192ZM301.057 15.658H301.557V15.158H301.057V15.658ZM301.057 20.104L301.025 20.603L301.557 20.6373V20.104H301.057ZM296.953 21.244L297.244 21.6503L297.25 21.6461L296.953 21.244ZM295.205 35V35.5H295.705V35H295.205ZM291.101 35H290.601V35.5H291.101V35ZM291.101 16V15.5H290.601V16H291.101ZM295.205 16H295.705V15.5H295.205V16ZM295.664 19.3896C296.135 18.2949 296.811 17.4979 297.686 16.9695C298.565 16.4387 299.68 16.158 301.057 16.158V15.158C299.546 15.158 298.241 15.4663 297.169 16.1135C296.094 16.7631 295.288 17.7331 294.746 18.9944L295.664 19.3896ZM300.557 15.658V20.104H301.557V15.658H300.557ZM301.089 19.605C299.412 19.4968 297.924 19.9042 296.656 20.8419L297.25 21.6461C298.312 20.8611 299.561 20.5085 301.025 20.603L301.089 19.605ZM296.661 20.8377C295.321 21.7992 294.705 23.3752 294.705 25.424H295.705C295.705 23.5715 296.254 22.3608 297.244 21.6503L296.661 20.8377ZM294.705 25.424V35H295.705V25.424H294.705ZM295.205 34.5H291.101V35.5H295.205V34.5ZM291.601 35V16H290.601V35H291.601ZM291.101 16.5H295.205V15.5H291.101V16.5ZM294.705 16V19.192H295.705V16H294.705ZM307.341 32.606L306.987 32.9596L307.341 32.606ZM307.341 18.394L307.694 18.7476L307.694 18.7476L307.341 18.394ZM321.553 18.394L321.199 18.7476L321.553 18.394ZM321.553 32.606L321.906 32.9596L321.906 32.9596L321.553 32.606ZM318.665 29.794L319.018 30.1476L319.018 30.1476L318.665 29.794ZM318.665 21.206L319.018 20.8524L318.665 21.206ZM310.229 21.206L310.582 21.5596L310.582 21.5596L310.229 21.206ZM314.447 34.994C311.762 34.994 309.522 34.0806 307.694 32.2524L306.987 32.9596C309.009 34.982 311.507 35.994 314.447 35.994V34.994ZM307.694 32.2524C305.838 30.3966 304.915 28.1556 304.915 25.5H303.915C303.915 28.4178 304.941 30.9141 306.987 32.9596L307.694 32.2524ZM304.915 25.5C304.915 22.8444 305.838 20.6034 307.694 18.7476L306.987 18.0404C304.941 20.0859 303.915 22.5822 303.915 25.5H304.915ZM307.694 18.7476C309.522 16.9194 311.762 16.006 314.447 16.006V15.006C311.507 15.006 309.009 16.018 306.987 18.0404L307.694 18.7476ZM314.447 16.006C317.131 16.006 319.371 16.9194 321.199 18.7476L321.906 18.0404C319.884 16.018 317.386 15.006 314.447 15.006V16.006ZM321.199 18.7476C323.055 20.6034 323.979 22.8444 323.979 25.5H324.979C324.979 22.5822 323.952 20.0859 321.906 18.0404L321.199 18.7476ZM323.979 25.5C323.979 28.1556 323.055 30.3966 321.199 32.2524L321.906 32.9596C323.952 30.9141 324.979 28.4178 324.979 25.5H323.979ZM321.199 32.2524C319.371 34.0806 317.131 34.994 314.447 34.994V35.994C317.386 35.994 319.884 34.982 321.906 32.9596L321.199 32.2524ZM309.875 30.1476C311.113 31.3851 312.647 32.004 314.447 32.004V31.004C312.902 31.004 311.625 30.4829 310.582 29.4404L309.875 30.1476ZM314.447 32.004C316.246 32.004 317.781 31.3851 319.018 30.1476L318.311 29.4404C317.269 30.4829 315.991 31.004 314.447 31.004V32.004ZM319.018 30.1476C320.259 28.9069 320.875 27.3452 320.875 25.5H319.875C319.875 27.1001 319.35 28.4011 318.311 29.4404L319.018 30.1476ZM320.875 25.5C320.875 23.6548 320.259 22.0931 319.018 20.8524L318.311 21.5596C319.35 22.5989 319.875 23.8999 319.875 25.5H320.875ZM319.018 20.8524C317.781 19.6149 316.246 18.996 314.447 18.996V19.996C315.991 19.996 317.269 20.5171 318.311 21.5596L319.018 20.8524ZM314.447 18.996C312.647 18.996 311.113 19.6149 309.875 20.8524L310.582 21.5596C311.625 20.5171 312.902 19.996 314.447 19.996V18.996ZM309.875 20.8524C308.634 22.0931 308.019 23.6548 308.019 25.5H309.019C309.019 23.8999 309.543 22.5989 310.582 21.5596L309.875 20.8524ZM308.019 25.5C308.019 27.3452 308.634 28.9069 309.875 30.1476L310.582 29.4404C309.543 28.4011 309.019 27.1001 309.019 25.5H308.019ZM343.275 16V15.5H342.775V16H343.275ZM347.379 16H347.879V15.5H347.379V16ZM347.379 35V35.5H347.879V35H347.379ZM343.275 35H342.775V35.5H343.275V35ZM343.275 32.568H343.775V30.8799L342.856 32.2957L343.275 32.568ZM332.065 33.442L331.702 33.7856L331.709 33.7922L332.065 33.442ZM330.089 16V15.5H329.589V16H330.089ZM334.193 16H334.693V15.5H334.193V16ZM335.333 30.554L334.98 30.9076L334.986 30.9135L335.333 30.554ZM341.945 30.326L342.299 30.6796L342.304 30.6745L341.945 30.326ZM343.275 16.5H347.379V15.5H343.275V16.5ZM346.879 16V35H347.879V16H346.879ZM347.379 34.5H343.275V35.5H347.379V34.5ZM343.775 35V32.568H342.775V35H343.775ZM342.856 32.2957C341.696 34.082 339.905 34.994 337.385 34.994V35.994C340.186 35.994 342.321 34.9553 343.695 32.8403L342.856 32.2957ZM337.385 34.994C335.294 34.994 333.657 34.3494 332.422 33.0918L331.709 33.7922C333.16 35.2706 335.069 35.994 337.385 35.994V34.994ZM332.429 33.0985C331.222 31.822 330.589 30.0329 330.589 27.666H329.589C329.589 30.2137 330.274 32.2753 331.702 33.7855L332.429 33.0985ZM330.589 27.666V16H329.589V27.666H330.589ZM330.089 16.5H334.193V15.5H330.089V16.5ZM333.693 16V27.248H334.693V16H333.693ZM333.693 27.248C333.693 28.7777 334.098 30.0251 334.98 30.9076L335.687 30.2004C335.049 29.5629 334.693 28.6063 334.693 27.248H333.693ZM334.986 30.9135C335.861 31.7592 337.036 32.156 338.449 32.156V31.156C337.228 31.156 336.326 30.8181 335.681 30.1945L334.986 30.9135ZM338.449 32.156C340.004 32.156 341.304 31.6743 342.299 30.6796L341.592 29.9724C340.813 30.751 339.783 31.156 338.449 31.156V32.156ZM342.304 30.6745C343.315 29.6341 343.775 28.1046 343.775 26.184H342.775C342.775 27.962 342.349 29.1939 341.587 29.9775L342.304 30.6745ZM343.775 26.184V16H342.775V26.184H343.775ZM371.9 18.432L372.261 18.0856L372.261 18.0855L371.9 18.432ZM371.9 32.606L371.54 32.2596L371.54 32.2596L371.9 32.606ZM358.562 32.302L358.967 32.0082L358.062 30.7626V32.302H358.562ZM358.562 42.6V43.1H359.062V42.6H358.562ZM354.458 42.6H353.958V43.1H354.458V42.6ZM354.458 16V15.5H353.958V16H354.458ZM358.562 16H359.062V15.5H358.562V16ZM358.562 18.736H358.062V20.2903L358.969 19.0275L358.562 18.736ZM360.272 29.87L359.915 30.2197L359.919 30.2236L360.272 29.87ZM368.86 29.87L369.214 30.2236L369.218 30.2196L368.86 29.87ZM368.86 21.168L368.503 21.5177L368.507 21.5216L368.86 21.168ZM360.272 21.168L360.626 21.5216L360.63 21.5176L360.272 21.168ZM365.212 16.006C367.653 16.006 369.755 16.9207 371.54 18.7785L372.261 18.0855C370.297 16.0419 367.94 15.006 365.212 15.006V16.006ZM371.54 18.7784C373.295 20.6061 374.174 22.8362 374.174 25.5H375.174C375.174 22.5905 374.204 20.1085 372.261 18.0856L371.54 18.7784ZM374.174 25.5C374.174 28.1905 373.295 30.4328 371.54 32.2596L372.261 32.9524C374.205 30.9286 375.174 28.4335 375.174 25.5H374.174ZM371.54 32.2596C369.782 34.0894 367.682 34.994 365.212 34.994V35.994C367.961 35.994 370.32 34.9733 372.261 32.9524L371.54 32.2596ZM365.212 34.994C362.466 34.994 360.408 33.9926 358.967 32.0082L358.158 32.5958C359.808 34.8674 362.183 35.994 365.212 35.994V34.994ZM358.062 32.302V42.6H359.062V32.302H358.062ZM358.562 42.1H354.458V43.1H358.562V42.1ZM354.958 42.6V16H353.958V42.6H354.958ZM354.458 16.5H358.562V15.5H354.458V16.5ZM358.062 16V18.736H359.062V16H358.062ZM358.969 19.0275C360.411 17.0182 362.469 16.006 365.212 16.006V15.006C362.18 15.006 359.805 16.1472 358.156 18.4445L358.969 19.0275ZM359.919 30.2236C361.16 31.4642 362.721 32.08 364.566 32.08V31.08C362.966 31.08 361.665 30.5558 360.626 29.5164L359.919 30.2236ZM364.566 32.08C366.412 32.08 367.973 31.4642 369.214 30.2236L368.507 29.5164C367.468 30.5558 366.167 31.08 364.566 31.08V32.08ZM369.218 30.2196C370.456 28.9537 371.07 27.3683 371.07 25.5H370.07C370.07 27.1277 369.545 28.4556 368.503 29.5204L369.218 30.2196ZM371.07 25.5C371.07 23.6317 370.456 22.0566 369.214 20.8144L368.507 21.5216C369.545 22.5594 370.07 23.8723 370.07 25.5H371.07ZM369.218 20.8184C367.978 19.551 366.415 18.92 364.566 18.92V19.92C366.163 19.92 367.463 20.4544 368.503 21.5176L369.218 20.8184ZM364.566 18.92C362.718 18.92 361.155 19.551 359.915 20.8184L360.63 21.5176C361.67 20.4544 362.97 19.92 364.566 19.92V18.92ZM359.919 20.8144C358.677 22.0566 358.062 23.6317 358.062 25.5H359.062C359.062 23.8723 359.588 22.5594 360.626 21.5216L359.919 20.8144ZM358.062 25.5C358.062 27.3683 358.677 28.9537 359.915 30.2196L360.63 29.5204C359.588 28.4556 359.062 27.1277 359.062 25.5H358.062Z" fill="white"/>
<path fill-rule="evenodd" clip-rule="evenodd" d="M398.954 17.8255C401.315 16.1391 403.874 15.0923 406.526 14.3364C405.748 16.0694 405.113 17.7861 404.79 19.4639C402.49 20.1561 400.23 21.2751 398.009 22.8226C398.056 21.1224 398.316 19.4494 398.954 17.8255Z" fill="white"/>
<path fill-rule="evenodd" clip-rule="evenodd" d="M398.009 22.822C396.519 23.958 395.651 24.5932 394.255 26.0286C393.738 27.9234 394.175 30.4026 395.089 31.404C396.176 29.8989 397.337 28.7011 398.578 27.841C398.004 26.1729 397.968 24.4974 398.009 22.822Z" fill="white"/>
<path fill-rule="evenodd" clip-rule="evenodd" d="M398.578 27.8416C399.404 30.3008 400.637 32.5636 402.593 34.4772C404.314 33.4274 406.036 32.3775 407.758 31.3283C406.246 29.2213 405.281 26.9366 404.767 24.5029C402.713 25.1982 400.651 26.2844 398.578 27.8416Z" fill="white"/>
<path fill-rule="evenodd" clip-rule="evenodd" d="M404.767 24.5027C404.539 22.8218 404.516 21.1422 404.79 19.4631C407.337 18.703 409.85 18.3993 412.344 18.3508C412.234 19.9832 412.125 21.6156 412.016 23.2486C409.625 23.368 407.213 23.7468 404.767 24.5027Z" fill="white"/>
<path fill-rule="evenodd" clip-rule="evenodd" d="M412.016 23.2485C412.27 25.3579 412.781 27.3461 413.855 29.0652C415.8 29.0652 417.746 29.0664 419.692 29.0682C418.652 27.1564 418.111 25.2452 417.982 23.334C416.131 23.2255 414.142 23.197 412.016 23.2485Z" fill="white"/>
<path fill-rule="evenodd" clip-rule="evenodd" d="M412.344 18.3508C412.562 16.7893 413.309 15.3152 414.035 13.9016C416.159 14.0253 417.841 14.3035 419.729 14.7884C419.092 16.0504 418.638 17.3434 418.308 18.6587C416.486 18.4672 414.498 18.3653 412.344 18.3508Z" fill="white"/>
<path fill-rule="evenodd" clip-rule="evenodd" d="M414.035 13.9019C411.562 13.5551 408.853 13.7412 406.526 14.3365C407.562 12.2604 409.028 10.2449 410.787 8.27127C413.272 8.23126 415.756 8.19126 418.24 8.15186C416.427 9.9382 415.259 11.8797 414.035 13.9019Z" fill="white"/>
<path fill-rule="evenodd" clip-rule="evenodd" d="M417.982 23.3342C417.864 21.7818 417.918 20.2228 418.223 18.6541C420.251 18.9232 422.399 19.2275 424.692 19.5736C424.372 21.0114 424.152 22.4407 424.157 23.8525C422.271 23.61 420.276 23.4112 417.982 23.3342Z" fill="white"/>
<path fill-rule="evenodd" clip-rule="evenodd" d="M425.944 16.4027C424.039 15.8826 421.978 15.3455 419.729 14.7885C420.397 13.3161 421.371 11.8371 422.712 10.3472C424.751 10.9727 426.791 11.5977 428.83 12.2232C427.642 13.6762 426.68 15.0703 425.944 16.4027Z" fill="white"/>
<path fill-rule="evenodd" clip-rule="evenodd" d="M424.692 19.574C425.068 18.4653 425.479 17.4088 425.944 16.4026C427.805 16.9312 429.606 17.2833 431.39 17.587C430.927 18.5441 430.555 19.4885 430.432 20.3972C428.725 20.2099 426.755 19.9116 424.692 19.574Z" fill="white"/>
<path fill-rule="evenodd" clip-rule="evenodd" d="M430.043 24.3096C430.126 25.9711 430.475 27.5956 431.045 29.1879C429.175 29.3219 427.305 29.4552 425.435 29.5886C424.926 27.4307 424.51 25.548 424.157 23.8525C426.163 24.0992 428.131 24.2641 430.043 24.3096Z" fill="white"/>
<path fill-rule="evenodd" clip-rule="evenodd" d="M430.432 20.3975C432.372 20.6163 434.241 20.7642 435.97 20.7272C435.78 21.9165 435.625 23.0961 435.721 24.2078C434.025 24.3811 432.089 24.3842 430.043 24.3096C429.933 23.0118 430.038 21.708 430.432 20.3975Z" fill="white"/>
<path fill-rule="evenodd" clip-rule="evenodd" d="M431.39 17.5871C431.888 16.2584 432.649 14.9479 433.758 13.6628C435.39 13.9271 437.022 14.1914 438.654 14.4557C437.917 15.7086 437.218 16.9664 436.675 18.246C435.271 18.1332 433.532 17.9205 431.39 17.5871Z" fill="white"/>
<path fill-rule="evenodd" clip-rule="evenodd" d="M436.675 18.2461C436.382 19.0735 436.131 19.9009 435.97 20.7265C437.968 20.798 439.798 20.7792 441.38 20.6277C441.437 19.9312 441.675 19.2256 441.965 18.5177C440.298 18.5304 438.554 18.4613 436.675 18.2461Z" fill="white"/>
<path fill-rule="evenodd" clip-rule="evenodd" d="M441.38 20.6278C441.144 21.5977 441.147 22.5651 441.211 23.5246L451.805 20.2132C451.389 20.2338 451.571 19.624 451.159 19.6743C447.975 20.0611 444.315 20.5399 441.38 20.6278Z" fill="white"/>
<path fill-rule="evenodd" clip-rule="evenodd" d="M441.093 23.5239C439.605 23.787 437.864 24.0179 435.721 24.2077C435.825 25.2181 435.959 26.2365 436.199 27.2857C437.92 26.9536 439.642 26.6226 441.364 26.2904C441.224 25.3382 441.134 24.4156 441.093 23.5239Z" fill="white"/>
<path fill-rule="evenodd" clip-rule="evenodd" d="M394 23.2753C399.559 14.831 409.924 5.84772 420.725 10.9788C429.478 15.1371 439.812 17.452 449.038 20.4434C442.291 24.2725 436.367 27.6281 427.493 28.0428C421.198 28.3361 413.669 25.9376 408.087 29.2169C402.949 32.2362 399.218 33.4103 395.451 31.8415C400.554 45.0642 422.874 43.0421 432.05 39.3718C430.831 38.9578 429.61 38.5432 428.39 38.128C423.97 38.8845 419.479 39.2318 415.131 38.1971C412.482 37.5673 412.514 35.6264 415.339 35.2263C422.337 34.2365 429.135 37.9304 436.746 39.51C441.699 40.5381 445.967 39.5955 449.038 38.128C453.313 36.0871 456.15 35.2785 459.328 34.3292C456.691 34.4735 454.131 34.7784 449.522 35.9173C437.267 38.9475 433.557 35.4245 429.357 33.5691C435.198 32.8563 438.312 31.5088 442.34 30.1746C446.732 28.7186 451.462 28.1701 454.563 28.6641C456.402 28.9575 456.418 29.9922 454.908 31.082C453.06 32.4168 450.627 33.0278 447.864 33.2236C450.419 34.1061 452.835 33.5849 455.53 32.6714C458.029 31.8234 460.591 31.9761 462.504 32.2562C475.518 34.1625 483.101 28.3822 493.245 19.0322C487.708 23.1699 481.721 27.0741 474.455 27.4008C471.716 27.5233 472.328 26.297 473.127 25.563C474.439 24.3604 477.758 23.6809 481.808 23.3178C479.232 22.097 475.81 21.3447 471.595 21.7878C469.201 22.0388 466.861 22.968 464.753 22.808C460.924 22.517 461.804 21.4066 463.732 20.5628C466.247 19.462 468.838 19.3159 471.391 19.0322C468.439 18.1382 465.018 17.9115 460.668 18.2157C457.95 18.4061 457.296 16.0463 459.443 14.6443C463.456 12.0226 467.55 11.6929 471.085 12.1948C472.456 12.3894 472.778 13.3368 471.595 14.1333C470.191 15.0795 468.292 14.777 466.285 14.5418C470.915 17.3592 475.532 18.0709 480.174 17.7054C490.952 16.8561 494.568 13.2641 497.943 9.4392C491.004 13.6065 484.05 15.8372 477.416 10.6636C474.153 8.11839 470.492 5.84772 463.017 6.78606C459.538 7.11884 455.636 8.70272 451.069 10.0514C448.62 10.7746 449.069 9.55316 450.15 8.72454C453.826 5.9047 459.907 4.31354 466.259 3C461.637 3.10183 457.205 3.0988 450.225 5.39614C446.58 6.59633 442.516 9.01308 436.977 9.74531C433.024 10.2672 428.972 9.77926 425.641 8.00989C423.792 7.02912 423.945 6.68846 425.437 6.47934C428.962 5.98532 432.516 6.89395 436.057 7.29583C419.801 0.736611 397.686 0.0504412 394 23.2753Z" fill="white"/>
<path fill-rule="evenodd" clip-rule="evenodd" d="M435.271 35.3205C436.606 35.6727 437.683 36.0533 439.895 36.1461C443.027 33.425 448.726 31.1144 453.52 30.0542C447.733 30.2748 441.058 31.5405 435.271 35.3205Z" fill="white"/>
</g>
<defs>
<clipPath id="clip0_364_1128">
<rect width="500" height="93" fill="white"/>
</clipPath>
</defs>
</svg>
