<svg width="42" height="42" viewBox="0 0 42 42" fill="none" xmlns="http://www.w3.org/2000/svg">
<circle cx="21.067" cy="21.0162" r="20.0738" fill="white"/>
<path d="M27.5465 14.975C27.4073 14.857 27.2387 14.779 27.0586 14.7492C26.8786 14.7194 26.6938 14.7389 26.524 14.8057L14.9439 19.3536C14.7408 19.431 14.5688 19.573 14.4543 19.7578C14.3398 19.9425 14.2892 20.1598 14.3104 20.3761C14.3292 20.5924 14.4176 20.7967 14.5624 20.9584C14.7072 21.1201 14.9005 21.2306 15.1133 21.2732L18.0554 21.8566V25.5326C18.0553 25.7315 18.1142 25.9259 18.2248 26.0912C18.3354 26.2565 18.4926 26.3852 18.6764 26.461C18.7981 26.51 18.9279 26.5355 19.0591 26.5363C19.1909 26.5367 19.3215 26.5109 19.4432 26.4603C19.5649 26.4097 19.6753 26.3353 19.7679 26.2414L21.3989 24.6167L23.8642 26.7872C24.0462 26.9477 24.2802 27.0369 24.5229 27.0381C24.6296 27.0403 24.7359 27.0233 24.8366 26.9879C25.0021 26.9356 25.1511 26.8409 25.2688 26.7133C25.3865 26.5856 25.4689 26.4295 25.5078 26.2603L27.8664 15.9599C27.9077 15.7822 27.8997 15.5965 27.8433 15.423C27.7869 15.2495 27.6843 15.0946 27.5465 14.975ZM24.5292 26.0344L19.3602 21.4865L26.8063 16.1104L24.5292 26.0344Z" fill="#091114"/>
</svg>
