<svg width="41" height="42" viewBox="0 0 41 42" fill="none" xmlns="http://www.w3.org/2000/svg">
<circle cx="20.8824" cy="21.0162" r="20.0738" fill="white"/>
<path d="M20.8824 23.0234C21.9911 23.0234 22.8898 22.1246 22.8898 21.016C22.8898 19.9073 21.9911 19.0086 20.8824 19.0086C19.7738 19.0086 18.8751 19.9073 18.8751 21.016C18.8751 22.1246 19.7738 23.0234 20.8824 23.0234Z" fill="#091114"/>
<path d="M23.6426 14.7429H18.1223C17.1906 14.7429 16.2971 15.113 15.6383 15.7718C14.9795 16.4306 14.6094 17.3242 14.6094 18.2558V23.7761C14.6094 24.7078 14.9795 25.6013 15.6383 26.2601C16.2971 26.9189 17.1906 27.289 18.1223 27.289H23.6426C24.5743 27.289 25.4678 26.9189 26.1266 26.2601C26.7854 25.6013 27.1555 24.7078 27.1555 23.7761V18.2558C27.1555 17.3242 26.7854 16.4306 26.1266 15.7718C25.4678 15.113 24.5743 14.7429 23.6426 14.7429ZM20.8824 24.0271C20.2869 24.0271 19.7047 23.8505 19.2096 23.5196C18.7144 23.1887 18.3285 22.7185 18.1006 22.1683C17.8727 21.6181 17.813 21.0126 17.9292 20.4286C18.0454 19.8445 18.3322 19.3079 18.7533 18.8868C19.1744 18.4657 19.7109 18.179 20.295 18.0628C20.8791 17.9466 21.4845 18.0062 22.0347 18.2341C22.5849 18.462 23.0552 18.848 23.3861 19.3431C23.7169 19.8383 23.8935 20.4204 23.8935 21.016C23.8935 21.8146 23.5763 22.5804 23.0116 23.1451C22.4469 23.7098 21.681 24.0271 20.8824 24.0271ZM24.1444 18.5068C23.9955 18.5068 23.85 18.4626 23.7262 18.3799C23.6024 18.2972 23.5059 18.1796 23.449 18.0421C23.392 17.9045 23.3771 17.7532 23.4061 17.6071C23.4352 17.4611 23.5069 17.327 23.6121 17.2217C23.7174 17.1164 23.8515 17.0447 23.9976 17.0157C24.1436 16.9866 24.295 17.0015 24.4325 17.0585C24.5701 17.1155 24.6876 17.212 24.7703 17.3358C24.853 17.4596 24.8972 17.6051 24.8972 17.754C24.8972 17.9536 24.8179 18.1451 24.6767 18.2863C24.5355 18.4274 24.3441 18.5068 24.1444 18.5068Z" fill="#091114"/>
</svg>
