<svg width="41" height="42" viewBox="0 0 41 42" fill="none" xmlns="http://www.w3.org/2000/svg">
<circle cx="20.6978" cy="21.0162" r="20.0738" fill="white"/>
<path d="M28.0811 17.8609L26.1866 19.749C25.8102 24.1339 22.1091 27.5402 17.6866 27.5402C16.777 27.5402 16.0243 27.3959 15.4534 27.1136C14.9955 26.8815 14.8073 26.6369 14.7571 26.5616C14.7156 26.4985 14.6888 26.4269 14.6788 26.3521C14.6688 26.2772 14.6759 26.2011 14.6994 26.1293C14.7229 26.0576 14.7623 25.9921 14.8146 25.9377C14.867 25.8832 14.931 25.8414 15.0018 25.8151C15.0143 25.8088 16.4947 25.2442 17.4545 24.159C16.8593 23.7352 16.3361 23.2184 15.9051 22.6284C15.0457 21.4616 14.1361 19.4354 14.6818 16.4118C14.699 16.3219 14.7401 16.2383 14.8008 16.1698C14.8616 16.1014 14.9396 16.0506 15.0268 16.0228C15.1143 15.9942 15.208 15.9902 15.2976 16.0112C15.3872 16.0322 15.4693 16.0775 15.535 16.142C15.5538 16.1671 17.6427 18.2247 20.1958 18.8896V18.507C20.1983 18.1091 20.2791 17.7156 20.4337 17.3489C20.5882 16.9823 20.8135 16.6496 21.0966 16.37C21.3797 16.0904 21.7151 15.8693 22.0836 15.7193C22.4522 15.5693 22.8467 15.4934 23.2446 15.4959C23.7668 15.5034 24.2782 15.6459 24.7289 15.9098C25.1796 16.1736 25.5543 16.5497 25.8165 17.0014H27.7235C27.8226 17.0011 27.9196 17.0302 28.0022 17.0849C28.0848 17.1396 28.1493 17.2175 28.1877 17.3088C28.2239 17.4015 28.2331 17.5026 28.2142 17.6002C28.1953 17.6979 28.1492 17.7883 28.0811 17.8609Z" fill="#091114"/>
</svg>
